<mxfile host="Electron" modified="2024-11-28T09:28:08.471Z" agent="Mozilla/5.0 (Windows NT 10.0; Win64; x64) AppleWebKit/537.36 (KHTML, like Gecko) draw.io/23.0.2 Chrome/120.0.6099.109 Electron/28.1.0 Safari/537.36" etag="CHf9xbsu9Hc3Xra08N2M" version="23.0.2" type="device">
  <diagram id="C5RBs43oDa-KdzZeNtuy" name="Page-1">
    <mxGraphModel dx="789" dy="818" grid="1" gridSize="10" guides="1" tooltips="1" connect="1" arrows="1" fold="1" page="1" pageScale="1" pageWidth="827" pageHeight="1169" math="0" shadow="0">
      <root>
        <mxCell id="WIyWlLk6GJQsqaUBKTNV-0" />
        <mxCell id="WIyWlLk6GJQsqaUBKTNV-1" parent="WIyWlLk6GJQsqaUBKTNV-0" />
        <mxCell id="9VNOGcir4t3zfCMRs3BQ-15" value="Регистрация" style="ellipse;whiteSpace=wrap;html=1;" parent="WIyWlLk6GJQsqaUBKTNV-1" vertex="1">
          <mxGeometry x="400" y="280" width="140" height="70" as="geometry" />
        </mxCell>
        <mxCell id="9VNOGcir4t3zfCMRs3BQ-58" value="Диаграмма вариантов использования:" style="text;html=1;align=center;verticalAlign=middle;resizable=0;points=[];autosize=1;strokeColor=none;fillColor=none;fontSize=25;" parent="WIyWlLk6GJQsqaUBKTNV-1" vertex="1">
          <mxGeometry x="275" y="120" width="470" height="40" as="geometry" />
        </mxCell>
        <mxCell id="WFDRFSRvHRVxW06Eg9aG-0" value="Диаграмма состояния:" style="text;html=1;align=center;verticalAlign=middle;resizable=0;points=[];autosize=1;strokeColor=none;fillColor=none;fontSize=25;" parent="WIyWlLk6GJQsqaUBKTNV-1" vertex="1">
          <mxGeometry x="930" y="1333" width="290" height="40" as="geometry" />
        </mxCell>
        <mxCell id="WFDRFSRvHRVxW06Eg9aG-3" style="edgeStyle=orthogonalEdgeStyle;rounded=0;orthogonalLoop=1;jettySize=auto;html=1;entryX=0.5;entryY=0;entryDx=0;entryDy=0;" parent="WIyWlLk6GJQsqaUBKTNV-1" source="WFDRFSRvHRVxW06Eg9aG-1" target="WFDRFSRvHRVxW06Eg9aG-2" edge="1">
          <mxGeometry relative="1" as="geometry" />
        </mxCell>
        <mxCell id="WFDRFSRvHRVxW06Eg9aG-1" value="" style="shape=ellipse;html=1;fillColor=strokeColor;fontSize=18;fontColor=#ffffff;" parent="WIyWlLk6GJQsqaUBKTNV-1" vertex="1">
          <mxGeometry x="1055" y="1410" width="40" height="40" as="geometry" />
        </mxCell>
        <mxCell id="WFDRFSRvHRVxW06Eg9aG-6" style="edgeStyle=orthogonalEdgeStyle;rounded=0;orthogonalLoop=1;jettySize=auto;html=1;entryX=0.5;entryY=0;entryDx=0;entryDy=0;" parent="WIyWlLk6GJQsqaUBKTNV-1" source="WFDRFSRvHRVxW06Eg9aG-2" target="WFDRFSRvHRVxW06Eg9aG-5" edge="1">
          <mxGeometry relative="1" as="geometry" />
        </mxCell>
        <mxCell id="WFDRFSRvHRVxW06Eg9aG-7" value="пользователь включил атомат" style="edgeLabel;html=1;align=center;verticalAlign=middle;resizable=0;points=[];" parent="WFDRFSRvHRVxW06Eg9aG-6" vertex="1" connectable="0">
          <mxGeometry x="-0.0698" relative="1" as="geometry">
            <mxPoint as="offset" />
          </mxGeometry>
        </mxCell>
        <mxCell id="WFDRFSRvHRVxW06Eg9aG-2" value="Ожидание" style="shape=rect;rounded=1;html=1;whiteSpace=wrap;align=center;" parent="WIyWlLk6GJQsqaUBKTNV-1" vertex="1">
          <mxGeometry x="1025" y="1540" width="100" height="40" as="geometry" />
        </mxCell>
        <mxCell id="WFDRFSRvHRVxW06Eg9aG-9" style="edgeStyle=orthogonalEdgeStyle;rounded=0;orthogonalLoop=1;jettySize=auto;html=1;" parent="WIyWlLk6GJQsqaUBKTNV-1" source="WFDRFSRvHRVxW06Eg9aG-5" target="WFDRFSRvHRVxW06Eg9aG-8" edge="1">
          <mxGeometry relative="1" as="geometry" />
        </mxCell>
        <mxCell id="WFDRFSRvHRVxW06Eg9aG-10" value="пользовательт вносит деньги" style="edgeLabel;html=1;align=center;verticalAlign=middle;resizable=0;points=[];" parent="WFDRFSRvHRVxW06Eg9aG-9" vertex="1" connectable="0">
          <mxGeometry x="-0.0936" relative="1" as="geometry">
            <mxPoint as="offset" />
          </mxGeometry>
        </mxCell>
        <mxCell id="ZWmssrIPhrKdZLBsm7Cw-44" style="edgeStyle=orthogonalEdgeStyle;rounded=0;orthogonalLoop=1;jettySize=auto;html=1;entryX=0.5;entryY=1;entryDx=0;entryDy=0;" edge="1" parent="WIyWlLk6GJQsqaUBKTNV-1" source="WFDRFSRvHRVxW06Eg9aG-5" target="ZWmssrIPhrKdZLBsm7Cw-41">
          <mxGeometry relative="1" as="geometry" />
        </mxCell>
        <mxCell id="ZWmssrIPhrKdZLBsm7Cw-45" value="пользователь не внес деньги" style="edgeLabel;html=1;align=center;verticalAlign=middle;resizable=0;points=[];" vertex="1" connectable="0" parent="ZWmssrIPhrKdZLBsm7Cw-44">
          <mxGeometry x="-0.3778" y="-1" relative="1" as="geometry">
            <mxPoint x="53" y="9" as="offset" />
          </mxGeometry>
        </mxCell>
        <mxCell id="WFDRFSRvHRVxW06Eg9aG-5" value="Ожидание внесение денег" style="shape=rect;rounded=1;html=1;whiteSpace=wrap;align=center;" parent="WIyWlLk6GJQsqaUBKTNV-1" vertex="1">
          <mxGeometry x="1025" y="1650" width="100" height="40" as="geometry" />
        </mxCell>
        <mxCell id="WFDRFSRvHRVxW06Eg9aG-12" style="edgeStyle=orthogonalEdgeStyle;rounded=0;orthogonalLoop=1;jettySize=auto;html=1;entryX=0.5;entryY=0;entryDx=0;entryDy=0;" parent="WIyWlLk6GJQsqaUBKTNV-1" source="WFDRFSRvHRVxW06Eg9aG-8" target="WFDRFSRvHRVxW06Eg9aG-11" edge="1">
          <mxGeometry relative="1" as="geometry" />
        </mxCell>
        <mxCell id="WFDRFSRvHRVxW06Eg9aG-13" value="автомат выдает билет" style="edgeLabel;html=1;align=center;verticalAlign=middle;resizable=0;points=[];" parent="WFDRFSRvHRVxW06Eg9aG-12" vertex="1" connectable="0">
          <mxGeometry x="-0.0264" y="1" relative="1" as="geometry">
            <mxPoint as="offset" />
          </mxGeometry>
        </mxCell>
        <mxCell id="WFDRFSRvHRVxW06Eg9aG-8" value="Деньги получены" style="shape=rect;rounded=1;html=1;whiteSpace=wrap;align=center;" parent="WIyWlLk6GJQsqaUBKTNV-1" vertex="1">
          <mxGeometry x="1025" y="1760" width="100" height="40" as="geometry" />
        </mxCell>
        <mxCell id="WFDRFSRvHRVxW06Eg9aG-16" style="edgeStyle=orthogonalEdgeStyle;rounded=0;orthogonalLoop=1;jettySize=auto;html=1;" parent="WIyWlLk6GJQsqaUBKTNV-1" source="WFDRFSRvHRVxW06Eg9aG-11" edge="1">
          <mxGeometry relative="1" as="geometry">
            <mxPoint x="1075" y="1980" as="targetPoint" />
          </mxGeometry>
        </mxCell>
        <mxCell id="WFDRFSRvHRVxW06Eg9aG-11" value="Билет выдан" style="shape=rect;rounded=1;html=1;whiteSpace=wrap;align=center;" parent="WIyWlLk6GJQsqaUBKTNV-1" vertex="1">
          <mxGeometry x="1025" y="1880" width="100" height="40" as="geometry" />
        </mxCell>
        <mxCell id="WFDRFSRvHRVxW06Eg9aG-21" value="" style="shape=mxgraph.sysml.actFinal;html=1;verticalLabelPosition=bottom;labelBackgroundColor=#ffffff;verticalAlign=top;" parent="WIyWlLk6GJQsqaUBKTNV-1" vertex="1">
          <mxGeometry x="1055" y="1980" width="40" height="40" as="geometry" />
        </mxCell>
        <mxCell id="ZWmssrIPhrKdZLBsm7Cw-31" style="edgeStyle=orthogonalEdgeStyle;rounded=0;orthogonalLoop=1;jettySize=auto;html=1;entryX=0;entryY=0.5;entryDx=0;entryDy=0;curved=1;" edge="1" parent="WIyWlLk6GJQsqaUBKTNV-1" source="ZWmssrIPhrKdZLBsm7Cw-0" target="ZWmssrIPhrKdZLBsm7Cw-10">
          <mxGeometry relative="1" as="geometry" />
        </mxCell>
        <mxCell id="ZWmssrIPhrKdZLBsm7Cw-0" value="Librarian" style="shape=umlActor;verticalLabelPosition=bottom;verticalAlign=top;html=1;" vertex="1" parent="WIyWlLk6GJQsqaUBKTNV-1">
          <mxGeometry x="110" y="735" width="30" height="60" as="geometry" />
        </mxCell>
        <mxCell id="ZWmssrIPhrKdZLBsm7Cw-35" style="edgeStyle=orthogonalEdgeStyle;rounded=0;orthogonalLoop=1;jettySize=auto;html=1;entryX=0;entryY=0.5;entryDx=0;entryDy=0;curved=1;" edge="1" parent="WIyWlLk6GJQsqaUBKTNV-1" source="ZWmssrIPhrKdZLBsm7Cw-3" target="9VNOGcir4t3zfCMRs3BQ-15">
          <mxGeometry relative="1" as="geometry" />
        </mxCell>
        <mxCell id="ZWmssrIPhrKdZLBsm7Cw-36" style="edgeStyle=orthogonalEdgeStyle;rounded=0;orthogonalLoop=1;jettySize=auto;html=1;entryX=0;entryY=0.5;entryDx=0;entryDy=0;curved=1;" edge="1" parent="WIyWlLk6GJQsqaUBKTNV-1" source="ZWmssrIPhrKdZLBsm7Cw-3" target="ZWmssrIPhrKdZLBsm7Cw-5">
          <mxGeometry relative="1" as="geometry" />
        </mxCell>
        <mxCell id="ZWmssrIPhrKdZLBsm7Cw-37" style="edgeStyle=orthogonalEdgeStyle;rounded=0;orthogonalLoop=1;jettySize=auto;html=1;curved=1;" edge="1" parent="WIyWlLk6GJQsqaUBKTNV-1" source="ZWmssrIPhrKdZLBsm7Cw-3" target="ZWmssrIPhrKdZLBsm7Cw-9">
          <mxGeometry relative="1" as="geometry" />
        </mxCell>
        <mxCell id="ZWmssrIPhrKdZLBsm7Cw-3" value="Reader" style="shape=umlActor;verticalLabelPosition=bottom;verticalAlign=top;html=1;" vertex="1" parent="WIyWlLk6GJQsqaUBKTNV-1">
          <mxGeometry x="110" y="570" width="30" height="60" as="geometry" />
        </mxCell>
        <mxCell id="ZWmssrIPhrKdZLBsm7Cw-30" style="edgeStyle=orthogonalEdgeStyle;rounded=0;orthogonalLoop=1;jettySize=auto;html=1;" edge="1" parent="WIyWlLk6GJQsqaUBKTNV-1" source="ZWmssrIPhrKdZLBsm7Cw-4" target="ZWmssrIPhrKdZLBsm7Cw-0">
          <mxGeometry relative="1" as="geometry" />
        </mxCell>
        <mxCell id="ZWmssrIPhrKdZLBsm7Cw-33" style="edgeStyle=orthogonalEdgeStyle;rounded=0;orthogonalLoop=1;jettySize=auto;html=1;entryX=0;entryY=0.5;entryDx=0;entryDy=0;curved=1;" edge="1" parent="WIyWlLk6GJQsqaUBKTNV-1" source="ZWmssrIPhrKdZLBsm7Cw-4" target="ZWmssrIPhrKdZLBsm7Cw-25">
          <mxGeometry relative="1" as="geometry" />
        </mxCell>
        <mxCell id="ZWmssrIPhrKdZLBsm7Cw-34" style="edgeStyle=orthogonalEdgeStyle;rounded=0;orthogonalLoop=1;jettySize=auto;html=1;entryX=0;entryY=0.5;entryDx=0;entryDy=0;curved=1;" edge="1" parent="WIyWlLk6GJQsqaUBKTNV-1" source="ZWmssrIPhrKdZLBsm7Cw-4" target="ZWmssrIPhrKdZLBsm7Cw-26">
          <mxGeometry relative="1" as="geometry" />
        </mxCell>
        <mxCell id="ZWmssrIPhrKdZLBsm7Cw-4" value="Admin" style="shape=umlActor;verticalLabelPosition=bottom;verticalAlign=top;html=1;" vertex="1" parent="WIyWlLk6GJQsqaUBKTNV-1">
          <mxGeometry x="110" y="880" width="30" height="60" as="geometry" />
        </mxCell>
        <mxCell id="ZWmssrIPhrKdZLBsm7Cw-5" value="Просмотр книг" style="ellipse;whiteSpace=wrap;html=1;" vertex="1" parent="WIyWlLk6GJQsqaUBKTNV-1">
          <mxGeometry x="400" y="390" width="140" height="70" as="geometry" />
        </mxCell>
        <mxCell id="ZWmssrIPhrKdZLBsm7Cw-7" style="edgeStyle=orthogonalEdgeStyle;rounded=0;orthogonalLoop=1;jettySize=auto;html=1;entryX=1;entryY=0.5;entryDx=0;entryDy=0;dashed=1;dashPattern=8 8;" edge="1" parent="WIyWlLk6GJQsqaUBKTNV-1" source="ZWmssrIPhrKdZLBsm7Cw-6" target="ZWmssrIPhrKdZLBsm7Cw-5">
          <mxGeometry relative="1" as="geometry" />
        </mxCell>
        <mxCell id="ZWmssrIPhrKdZLBsm7Cw-8" value="exntend" style="edgeLabel;html=1;align=center;verticalAlign=middle;resizable=0;points=[];" vertex="1" connectable="0" parent="ZWmssrIPhrKdZLBsm7Cw-7">
          <mxGeometry x="0.2" y="-2" relative="1" as="geometry">
            <mxPoint as="offset" />
          </mxGeometry>
        </mxCell>
        <mxCell id="ZWmssrIPhrKdZLBsm7Cw-6" value="Поиск книг" style="ellipse;whiteSpace=wrap;html=1;" vertex="1" parent="WIyWlLk6GJQsqaUBKTNV-1">
          <mxGeometry x="630" y="390" width="140" height="70" as="geometry" />
        </mxCell>
        <mxCell id="ZWmssrIPhrKdZLBsm7Cw-9" value="Бронирование книги" style="ellipse;whiteSpace=wrap;html=1;" vertex="1" parent="WIyWlLk6GJQsqaUBKTNV-1">
          <mxGeometry x="430" y="550" width="140" height="70" as="geometry" />
        </mxCell>
        <mxCell id="ZWmssrIPhrKdZLBsm7Cw-10" value="Управление книгами" style="ellipse;whiteSpace=wrap;html=1;" vertex="1" parent="WIyWlLk6GJQsqaUBKTNV-1">
          <mxGeometry x="344" y="830" width="140" height="70" as="geometry" />
        </mxCell>
        <mxCell id="ZWmssrIPhrKdZLBsm7Cw-13" style="edgeStyle=orthogonalEdgeStyle;rounded=0;orthogonalLoop=1;jettySize=auto;html=1;dashed=1;dashPattern=8 8;curved=1;" edge="1" parent="WIyWlLk6GJQsqaUBKTNV-1" source="ZWmssrIPhrKdZLBsm7Cw-11" target="ZWmssrIPhrKdZLBsm7Cw-10">
          <mxGeometry relative="1" as="geometry" />
        </mxCell>
        <mxCell id="ZWmssrIPhrKdZLBsm7Cw-16" value="include" style="edgeLabel;html=1;align=center;verticalAlign=middle;resizable=0;points=[];" vertex="1" connectable="0" parent="ZWmssrIPhrKdZLBsm7Cw-13">
          <mxGeometry x="-0.5455" y="9" relative="1" as="geometry">
            <mxPoint as="offset" />
          </mxGeometry>
        </mxCell>
        <mxCell id="ZWmssrIPhrKdZLBsm7Cw-11" value="Добавление книг" style="ellipse;whiteSpace=wrap;html=1;" vertex="1" parent="WIyWlLk6GJQsqaUBKTNV-1">
          <mxGeometry x="590" y="630" width="140" height="70" as="geometry" />
        </mxCell>
        <mxCell id="ZWmssrIPhrKdZLBsm7Cw-15" style="edgeStyle=orthogonalEdgeStyle;rounded=0;orthogonalLoop=1;jettySize=auto;html=1;entryX=1;entryY=0.5;entryDx=0;entryDy=0;dashed=1;dashPattern=8 8;curved=1;" edge="1" parent="WIyWlLk6GJQsqaUBKTNV-1" source="ZWmssrIPhrKdZLBsm7Cw-12" target="ZWmssrIPhrKdZLBsm7Cw-10">
          <mxGeometry relative="1" as="geometry" />
        </mxCell>
        <mxCell id="ZWmssrIPhrKdZLBsm7Cw-17" value="extend" style="edgeLabel;html=1;align=center;verticalAlign=middle;resizable=0;points=[];" vertex="1" connectable="0" parent="ZWmssrIPhrKdZLBsm7Cw-15">
          <mxGeometry x="0.0205" y="2" relative="1" as="geometry">
            <mxPoint as="offset" />
          </mxGeometry>
        </mxCell>
        <mxCell id="ZWmssrIPhrKdZLBsm7Cw-12" value="Удаление книг" style="ellipse;whiteSpace=wrap;html=1;" vertex="1" parent="WIyWlLk6GJQsqaUBKTNV-1">
          <mxGeometry x="590" y="730" width="140" height="70" as="geometry" />
        </mxCell>
        <mxCell id="ZWmssrIPhrKdZLBsm7Cw-21" style="edgeStyle=orthogonalEdgeStyle;rounded=0;orthogonalLoop=1;jettySize=auto;html=1;entryX=1;entryY=0.5;entryDx=0;entryDy=0;dashed=1;dashPattern=8 8;" edge="1" parent="WIyWlLk6GJQsqaUBKTNV-1" source="ZWmssrIPhrKdZLBsm7Cw-19" target="ZWmssrIPhrKdZLBsm7Cw-10">
          <mxGeometry relative="1" as="geometry" />
        </mxCell>
        <mxCell id="ZWmssrIPhrKdZLBsm7Cw-23" value="extend" style="edgeLabel;html=1;align=center;verticalAlign=middle;resizable=0;points=[];" vertex="1" connectable="0" parent="ZWmssrIPhrKdZLBsm7Cw-21">
          <mxGeometry y="-1" relative="1" as="geometry">
            <mxPoint as="offset" />
          </mxGeometry>
        </mxCell>
        <mxCell id="ZWmssrIPhrKdZLBsm7Cw-19" value="Выдача книг" style="ellipse;whiteSpace=wrap;html=1;" vertex="1" parent="WIyWlLk6GJQsqaUBKTNV-1">
          <mxGeometry x="590" y="830" width="140" height="70" as="geometry" />
        </mxCell>
        <mxCell id="ZWmssrIPhrKdZLBsm7Cw-22" style="edgeStyle=orthogonalEdgeStyle;rounded=0;orthogonalLoop=1;jettySize=auto;html=1;entryX=0.5;entryY=1;entryDx=0;entryDy=0;curved=1;dashed=1;dashPattern=8 8;" edge="1" parent="WIyWlLk6GJQsqaUBKTNV-1" source="ZWmssrIPhrKdZLBsm7Cw-20" target="ZWmssrIPhrKdZLBsm7Cw-10">
          <mxGeometry relative="1" as="geometry" />
        </mxCell>
        <mxCell id="ZWmssrIPhrKdZLBsm7Cw-24" value="extend" style="edgeLabel;html=1;align=center;verticalAlign=middle;resizable=0;points=[];" vertex="1" connectable="0" parent="ZWmssrIPhrKdZLBsm7Cw-22">
          <mxGeometry x="-0.4343" y="-2" relative="1" as="geometry">
            <mxPoint as="offset" />
          </mxGeometry>
        </mxCell>
        <mxCell id="ZWmssrIPhrKdZLBsm7Cw-20" value="Возврат книг" style="ellipse;whiteSpace=wrap;html=1;" vertex="1" parent="WIyWlLk6GJQsqaUBKTNV-1">
          <mxGeometry x="590" y="940" width="140" height="70" as="geometry" />
        </mxCell>
        <mxCell id="ZWmssrIPhrKdZLBsm7Cw-25" value="Управление филиалами" style="ellipse;whiteSpace=wrap;html=1;" vertex="1" parent="WIyWlLk6GJQsqaUBKTNV-1">
          <mxGeometry x="344" y="1050" width="140" height="70" as="geometry" />
        </mxCell>
        <mxCell id="ZWmssrIPhrKdZLBsm7Cw-26" value="Просмотр аналитики" style="ellipse;whiteSpace=wrap;html=1;" vertex="1" parent="WIyWlLk6GJQsqaUBKTNV-1">
          <mxGeometry x="344" y="1160" width="140" height="70" as="geometry" />
        </mxCell>
        <mxCell id="ZWmssrIPhrKdZLBsm7Cw-38" style="edgeStyle=orthogonalEdgeStyle;rounded=0;orthogonalLoop=1;jettySize=auto;html=1;entryX=0.478;entryY=0.817;entryDx=0;entryDy=0;entryPerimeter=0;" edge="1" parent="WIyWlLk6GJQsqaUBKTNV-1" source="ZWmssrIPhrKdZLBsm7Cw-0" target="ZWmssrIPhrKdZLBsm7Cw-3">
          <mxGeometry relative="1" as="geometry" />
        </mxCell>
        <mxCell id="ZWmssrIPhrKdZLBsm7Cw-42" style="edgeStyle=orthogonalEdgeStyle;rounded=0;orthogonalLoop=1;jettySize=auto;html=1;entryX=1;entryY=0.5;entryDx=0;entryDy=0;" edge="1" parent="WIyWlLk6GJQsqaUBKTNV-1" source="ZWmssrIPhrKdZLBsm7Cw-41" target="WFDRFSRvHRVxW06Eg9aG-2">
          <mxGeometry relative="1" as="geometry">
            <Array as="points">
              <mxPoint x="1220" y="1560" />
            </Array>
          </mxGeometry>
        </mxCell>
        <mxCell id="ZWmssrIPhrKdZLBsm7Cw-41" value="транзакиц отменена" style="shape=rect;rounded=1;html=1;whiteSpace=wrap;align=center;" vertex="1" parent="WIyWlLk6GJQsqaUBKTNV-1">
          <mxGeometry x="1170" y="1590" width="100" height="40" as="geometry" />
        </mxCell>
      </root>
    </mxGraphModel>
  </diagram>
</mxfile>
